<svg xmlns="http://www.w3.org/2000/svg" width="224" height="192" viewBox="0 0 224 192" shape-rendering="crispEdges">
  <g fill="#dbe8ff" opacity=".14">
    <circle cx="74" cy="96" r="49"/><circle cx="150" cy="94" r="47"/>
  </g>
  <g fill="#eef5ff">
    <rect x="68" y="87" width="7" height="7"/><rect x="51" y="102" width="5" height="5"/>
    <rect x="80" y="112" width="5" height="5"/><rect x="91" y="75" width="4" height="4"/>
    <rect x="55" y="72" width="4" height="4"/><rect x="70" y="58" width="3" height="3"/>
    <rect x="143" y="86" width="7" height="7"/><rect x="126" y="105" width="5" height="5"/>
    <rect x="160" y="111" width="5" height="5"/><rect x="174" y="78" width="4" height="4"/>
    <rect x="139" y="61" width="4" height="4"/><rect x="157" y="70" width="3" height="3"/>
    <rect x="108" y="93" width="3" height="3"/><rect x="38" y="122" width="3" height="3"/>
    <rect x="188" y="122" width="3" height="3"/>
  </g>
  <g fill="#f4c27a">
    <rect x="62" y="97" width="5" height="5"/><rect x="84" y="91" width="4" height="4"/>
    <rect x="136" y="98" width="5" height="5"/><rect x="155" y="88" width="4" height="4"/>
  </g>
  <g fill="none" stroke="#74b7d8" stroke-width="2" opacity=".35">
    <circle cx="73" cy="95" r="42"/><circle cx="149" cy="94" r="40"/>
  </g>
</svg>
