<svg xmlns="http://www.w3.org/2000/svg" width="320" height="320" viewBox="0 0 320 320"><defs><filter id="g"><feGaussianBlur stdDeviation="5"/></filter></defs><circle cx="160" cy="160" r="105" fill="#e8d6a8" opacity=".1" filter="url(#g)"/><g fill="#f4e6bf"><circle cx="168" cy="160" r="1"/><circle cx="150.11931308817475" cy="169.06903846482285" r="2"/><circle cx="161.60953375156868" cy="141.2454096120941" r="3"/><circle cx="174.80121092429738" cy="179.1904569029327" r="4"/><circle cx="130.78646171071384" cy="154.94853709246271" r="1"/><circle cx="189.4900995336746" cy="141.04069788308647" r="2"/><circle cx="149.71971105162643" cy="199.14312418865765" r="3"/><circle cx="138.5784369955386" cy="119.42529174640222" r="4"/><circle cx="208.31581610894878" cy="177.2240651100882" r="1"/><circle cx="107.77370509280168" cy="182.09007047729716" r="2"/><circle cx="185.78516983300744" cy="103.48692989398354" r="3"/><circle cx="180.89202977721047" cy="224.21638844621634" r="4"/><circle cx="96.4719602983242" cy="124.1586356764171" r="1"/><circle cx="236.30875679185996" cy="142.21919495961376" r="2"/><circle cx="112.75287602593733" cy="229.16816628866667" r="3"/><circle cx="147.26333323091325" cy="71.73777576908887" r="4"/><circle cx="233.25762365709474" cy="219.8352306937212" r="1"/><circle cx="152.01331554027686" cy="160.46137982272398" r="2"/><circle cx="169.34120715636095" cy="150.3762127315748" r="3"/><circle cx="159.47476892342246" cy="178.816200249566" r="4"/><circle cx="144.1166636402453" cy="141.69510701883914" r="1"/><circle cx="189.45624441616815" cy="163.35823789818045" r="2"/><circle cx="131.65241497354816" cy="180.6285125599138" r="3"/><circle cx="168.0056970358015" cy="120.32913755561034" r="4"/><circle cx="183.7259520064794" cy="199.27173936566754" r="1"/><circle cx="110.77124827709233" cy="145.5910961903889" r="2"/><circle cx="210.86537814043285" cy="134.93467733987092" r="3"/><circle cx="137.51699688381294" cy="217.90610198417858" r="4"/><circle cx="135.4392255661234" cy="97.09539116650171" r="1"/><circle cx="225.48936121998133" cy="192.11788897035888" r="2"/><circle cx="84.84371783338538" cy="182.15212499729236" r="3"/><circle cx="203.17938431373125" cy="88.22210143892347" r="4"/><circle cx="177.80576849027761" cy="247.3807616987002" r="1"/><circle cx="83.41346343143954" cy="104.4893102863249" r="2"/><circle cx="167.9467821647958" cy="159.07877623495511" r="3"/><circle cx="151.22936840413462" cy="170.14649959028034" r="4"/><circle cx="159.4391799676977" cy="141.18482685684398" r="1"/><circle cx="176.9125879939548" cy="177.35839417445044" r="2"/><circle cx="130.39910590918197" cy="158.3461662991742" r="3"/><circle cx="187.11070466668647" cy="137.7709469445471" r="4"/><circle cx="154.29554492210139" cy="200.06654095844766" r="1"/><circle cx="134.04863995888962" cy="122.1619606290793" r="2"/><circle cx="209.97781048028025" cy="171.54577692437812" r="3"/><circle cx="110.66486362416441" cy="187.95713526460304" r="4"/><circle cx="179.10599306598252" cy="100.89362889597099" r="1"/><circle cx="188.14775909524118" cy="221.38342700764974" r="2"/><circle cx="92.76732381847077" cy="131.71250314391304" r="3"/><circle cx="233.75362091580723" cy="133.55029692395664" r="4"/><circle cx="121.03209455433998" cy="234.14869045866686" r="1"/><circle cx="137.18440314540467" cy="73.79158134646609" r="2"/><circle cx="239.6605017019403" cy="211.00136002745936" r="3"/><circle cx="152.11957405462823" cy="161.37800105932894" r="4"/><circle cx="168.17085961080278" cy="149.36456461885535" r="1"/><circle cx="161.64500423575012" cy="178.75151248779508" r="2"/><circle cx="142.11446043349974" cy="143.6458887314531" r="3"/><circle cx="189.64700579109362" cy="159.94392408115687" r="4"/><circle cx="134.21642411306016" cy="183.75559558817355" r="1"/><circle cx="163.3842236446581" cy="119.67115743746587" r="2"/><circle cx="188.09037898077443" cy="196.27838089186383" r="3"/><circle cx="109.43950114944711" cy="151.35578452527056" r="4"/><circle cx="207.64066361236934" cy="129.24411822108374" r="1"/><circle cx="144.3346186392719" cy="220.10988190761583" r="2"/><circle cx="128.35895689837818" cy="100.34209319186175" r="3"/><circle cx="228.75218129117312" cy="184.36293891588537" r="4"/><circle cx="87.89455766246721" cy="190.6592331331394" r="1"/><circle cx="194.62670689897217" cy="83.72735011231244" r="2"/><circle cx="187.74947471919853" cy="244.74909769067136" r="3"/><circle cx="77.53071381940153" cy="113.6777473246614" r="4"/><circle cx="167.78783669367914" cy="158.1698088535388" r="1"/><circle cx="152.45611222682086" cy="171.08896702996407" r="2"/></g></svg>